<?xml version="1.0" encoding="UTF-8" standalone="no"?>
<svg
   xmlns="http://www.w3.org/2000/svg"
   width="792.5"
   height="728"
   version="1.1">
  <path
     style="fill:#000000"
     d="m 415,278 72,0 2,2 0,124 -2,2 -128,0 -2,-2 0,-124 2,-2 4,0 2,2 0,2 50,0 0,2 -50,0 0,10 50,0 0,2 -50,0 0,10 50,0 0,2 -50,0 0,10 50,0 0,2 -50,0 0,10 50,0 0,2 -50,0 0,10 50,-0 0,2 -50,0 0,10 50,0 0,2 -50,0 0,10 50,0 0,2 -50,0 0,30 50,0 0,-30 2,0 0,30 12,0 0,-30 2,0 0,30 50,0 0,-30 -50,0 0,-2 50,0 0,-10 -50,0 0,-2 50,0 4.9e-4,-10 -50,0 0,-2 50,0 0,-10 -50,0 0,-2 50,0 0,-10 -50,0 0,-2 50,0 0,-10 -50,0 0,-2 50,0 0,-10 -50,0 0,-2 50,0 0,-10 -50,0 0,84 -16,0 z"
     id="Stairs" />
  <path
     style="fill:#000000"
     d="m 164,0 0,52 -9,0 0,6 -60,0 0,-6 -95,0 0,53 16,0 0,-37 154,0 1.84232,101 -23.84232,0 0,10 34,0 0,-163 118,0 0,-16 z m 286,0 0,16 85,0 0,-16 z m 235,0 0,16 90.5,0 0,251 -221,0 0,142 10,0 0,-132 211,0 0,361 -211,0 0,-169 -252.5,0 0,28 10,0 0,-18 232.5,0 0,233 -232.5,0 0,-155 -10,0 0,160 -54,0 0,-160 -10,0 0,155 -232,0 0,-63 -16,0 0,79.125 258,0 0,-7 54,0 0,7 258.5,0 0,-74 59.5,0 0,-6 60,0 0,6 102.5,0 0,-654 z M 0,205 l 0,124 16,0 0,-74 145,0 0,10.5 21.5,0 0,68.5 10,0 0,-78.5 -21.5,0 0,-10.5 -13,0 0,-6 -10,0 0,6 -132,0 0,-40 z m 182.5,264 -166.5,0 0,-40 -16,0 0,120 16,0 0,-70 232,0 0,18 10,0 0,-28 -65.5,0 0,-75 -10,0 z"
     id="Walls" />
  <path
     style="fill:none;stroke:#000000"
     d="m 535,12.000061 0,-8 150,0 0,8 z m -235,0 0,-8 150,0 0,8 z M 4,549.00006 l 8,0 0,100 -8,0 z m 0,-220 8,0 0,100 -8,0 z m 0,-224 8,0 0,100 -8,0 z"
     id="path2989" />
  <path
     style="fill:none;stroke:#000000"
     d="m 25.5,661.5 110,0 0,36 -110,0 z m -5,-5 120,0 0,46 -120,0 z"
     id="path2991" />
  <path
     style="fill:none;stroke:#000000"
     d="m 565.5,528.00006 38,0 0,79.5 -38,0 z"
     id="path2993" />
  <path
     style="fill:none;stroke:#000000;"
     d="m 751.5,606.75006 c 7.5,0 15,0 22.5,0 0,10 0,20 0,29.75 -7.5,0 -15,0 -22.5,0 0,-10 0,-20 0,-29.75 z m 0,-29.75 c 7.5,0 15,0 22.5,0 0,10 0,20 0,29.75 -7.5,0 -15,0 -22.5,0 0,-10 0,-20 0,-29.75 z m 0,-29.75 c 7.5,0 15,0 22.5,0 0,10 0,20 0,29.75 -7.5,0 -15,0 -22.5,0 0,-10 0,-20 0,-29.75 z"
     id="path2995" />
  <path
     style="fill:none;stroke:#000000"
     d="m 247.5,585.5 -21.5,0 c -7.25,7.5 -7.25,47.5 0,54 6.75,0 13.5,0 21.5,0 z"
     id="BathSink" />
  <path
     style="fill:none;stroke:#000000"
     d="m 16.5,407.5 21.5,0 c 7.25,-7.5 7.25,-47.5 0,-55 -6.75,-0 -13.5,0 -21.5,0 z"
     id="KitchenSink" />
  <path
     style="fill:#000000"
     d="m 182.5,299 0,2 -134.5,0 0,168 -2,0 0,-170 z"
     id="KitchenCounter" />
</svg>
