<?xml version="1.0" encoding="UTF-8" standalone="no"?>
<svg
   xmlns="http://www.w3.org/2000/svg"
   version="1.1"
   width="13"
   height="13">
  <path
     d="m 9.4231869,6.9428883 c 0.2170255,0.251414 0.4417892,0.552104 0.6697841,0.913498 1.454495,2.3056387 2.662002,4.8389887 2.674,4.8643327 l 0,-6.2e-5 c 0.01,0.02098 0.01009,0.03349 0.0093,0.03621 -6.19e-4,-3.1e-4 -0.0112,0.0056 -0.03324,0.0056 l -11.2108834,0 c -0.021109,-1.85e-4 -0.031571,-0.0056 -0.033552,-0.0077 4.705e-4,-5.63e-4 5.881e-4,-0.01306 0.010524,-0.03405 0.01201,-0.02526 1.2195045,-2.558613 2.6739994,-4.8642517 0.2279208,-0.361394 0.4527588,-0.662085 0.6697101,-0.913499 z"
     style="fill:#795b3f;fill-opacity:1;fill-rule:nonzero;stroke:none" />
  <path
     d="m 5.0690499,6.7053899 c 1.0274327,-1.065407 1.827898,-1.025905 1.8380565,-1.0252 l 0.4537802,3.1e-4 c 0.016405,-0.0012 0.8183496,-0.04055 1.8460051,1.02489 z m -2.461239,2.925244 c -0.575553,-0.861393 -1.9949293,-2.985477 -2.1749297,-3.2548 l 0.8898371,0 c 0.040238,0.02495 1.6635719,1.0277 2.3440348,1.447997 z"
     style="fill:#ffffff;fill-opacity:1;fill-rule:nonzero;stroke:none" />
  <path
     d="M 9.5221292,6.70539 C 8.4720269,5.521237 7.6018446,5.442779 7.3967418,5.44208 l 0,-0.211442 C 7.5804936,5.130593 7.7065317,4.927756 7.7065317,4.693242 c 0,-0.333624 -0.254577,-0.604043 -0.5684897,-0.604043 -0.3139127,0 -0.5684835,0.270419 -0.5684835,0.604043 0,0.234514 0.1260319,0.437271 0.3097898,0.537396 l 0,0.211126 C 6.6916161,5.441145 5.8147418,5.508954 4.7538124,6.70539 l 0.3152375,0 C 6.0964826,5.639983 6.8969479,5.679485 6.9071064,5.68019 L 7.3608866,5.6805 C 7.3772916,5.6793 8.1792362,5.63995 9.2068917,6.70539 l 0.3152375,0 z m 3.4444218,5.908301 0,-6.2e-5 C 12.954541,12.588189 11.741092,10.042264 10.278642,7.724108 10.09099,7.426705 9.9052451,7.168017 9.7237776,6.942888 l -0.3005907,0 c 0.2170255,0.251414 0.4417892,0.552104 0.6697841,0.913498 1.454495,2.305639 2.662002,4.838989 2.674,4.864333 l 0,-6.2e-5 c 0.01,0.02098 0.01009,0.03349 0.0093,0.03621 -6.19e-4,-3.1e-4 -0.0112,0.0056 -0.03324,0.0056 l -11.2108834,0 c -0.021109,-1.85e-4 -0.031571,-0.0056 -0.033552,-0.0077 4.705e-4,-5.63e-4 5.881e-4,-0.01306 0.010524,-0.03405 0.01201,-0.02526 1.2195045,-2.558613 2.6739994,-4.864252 C 4.4110398,7.495071 4.6358778,7.19438 4.8528291,6.942966 l -0.3005103,0 c -0.181548,0.22513 -0.3672869,0.483818 -0.5549449,0.781221 -1.4624435,2.318156 -2.6757637,4.864103 -2.6878351,4.889521 -0.044262,0.09309 -0.044571,0.190004 -0.00124,0.265807 0.043581,0.07572 0.1247813,0.119681 0.2229189,0.120541 l 11.2126483,0 c 0.09909,-6.19e-4 0.180285,-0.04482 0.223872,-0.120541 0.04346,-0.0758 0.04302,-0.172721 -0.0012,-0.265727 z m -7.8031955,-5.670816 3.9492306,0 C 9.0318995,6.856747 8.9529028,6.77759 8.87546,6.70539 l -3.4753436,0 C 5.3229644,6.77759 5.2438936,6.856747 5.1633555,6.942875 z M 7.138042,1.1876524 c 1.7324099,0 3.142073,1.4975886 3.142073,3.3385026 0,0.323923 -0.04445,0.636821 -0.125889,0.933209 l 0.433686,0.116084 c -0.129053,0.478183 -0.344314,0.91772 -0.6260612,1.29945 0.04779,0.06116 0.095711,0.124608 0.1439282,0.19032 0.316637,-0.417406 0.557223,-0.902702 0.698942,-1.431729 l -0.04798,-0.01281 0.481538,0.128911 C 11.341497,5.360116 11.397743,4.950145 11.397743,4.526171 11.397743,2.030447 9.4868806,0 7.1380606,0 6.2807668,0 5.4826601,0.2712793 4.8136867,0.7360855 L 5.4096311,1.7401591 C 5.9058222,1.3913564 6.4999343,1.1876648 7.1380606,1.1876648 z M 4.3142332,6.875913 C 3.8354125,6.227831 3.5488122,5.412118 3.5488122,4.526155 c 0,-1.331598 0.6463039,-2.505344 1.6224238,-3.1876901 L 5.0519704,1.1376704 C 4.0132772,1.8621735 3.3253795,3.110076 3.3253795,4.526155 c 0,0.960899 0.317076,1.84428 0.8450738,2.539533 0.048224,-0.06556 0.096002,-0.128836 0.1437799,-0.189775 z M 2.6078109,9.630634 C 2.0322579,8.769241 0.61288155,6.645157 0.43288117,6.375834 l 0.88983713,0 c 0.040238,0.02495 1.6635719,1.0277 2.3440348,1.447997 0.040981,-0.06618 0.082302,-0.132279 0.123828,-0.198145 L 1.3829392,6.138268 0,6.138268 2.483469,9.854829 C 2.524264,9.780829 2.565703,9.706121 2.6078109,9.630634 z M 6.4480148,6.260765 c 0,-0.100831 -0.076861,-0.182415 -0.1716123,-0.182415 -0.094819,0 -0.1716742,0.08158 -0.1716742,0.182415 0,0.100676 0.076855,0.18234 0.1716742,0.18234 0.094745,0 0.1716123,-0.08166 0.1716123,-0.18234"
     style="fill:#231f20;fill-opacity:1;fill-rule:nonzero;stroke:none" />
</svg>
