<?xml version="1.0" encoding="UTF-8" standalone="no"?>
<svg
   xmlns="http://www.w3.org/2000/svg"
   width="13"
   height="13"
   version="1.1">
  <path
     d="m 7.8065353,4.628204 c 0.7145097,0.702508 2.4516067,2.597642 2.4516067,4.420916 0,2.459718 -1.6837834,3.706957 -5.0042991,3.706957 -3.3205957,0 -5.00429841,-1.247239 -5.00429841,-3.706957 0,-1.823274 1.73701591,-3.718408 2.45160601,-4.420916 l -0.3532805,0 C 1.5343614,5.454831 0,7.252056 0,9.04912 0,10.851447 0.91138339,13 5.2538429,13 c 4.342299,0 5.2538431,-2.148553 5.2538431,-3.95088 0,-1.797064 -1.5343617,-3.594289 -2.3479506,-4.420916 l -0.3532001,0 z M 7.0533252,2.590739 7.5133927,2.149971 l 0,-0.3066143 1.3709695,-1.3396624 c 0.1678077,-0.1678981 0.3910976,-0.259771 0.6298023,-0.259771 0.4845565,0 0.8788655,0.3852272 0.8788655,0.8588729 0,0.067315 0.0558,0.1219214 0.124772,0.1219214 0.06889,0 0.124772,-0.0546 0.124772,-0.1219214 C 10.642574,0.4947552 10.13634,0 9.5141645,0 9.2076939,0 8.9209745,0.1180771 8.7068385,0.3322676 l -1.3698453,1.338641 -1.3767499,0 0,-0.6801476 -1.4128811,0 0,0.6801476 -1.7619864,0 0,0.4790624 0.4600675,0.440768 3.8078819,0 z m -4.923365,0 0.3576965,0 C 2.2666155,2.361803 1.9186342,2.088772 1.4307057,1.9611243 l 0,-0.046305 1.104965,0 0,-0.2439233 -1.3544292,0 0,0.478666 0.098678,0.02062 c 0.3599447,0.0754 0.6425691,0.246752 0.8500411,0.420531 z m 6.7132929,-0.538763 0,-0.3810674 -0.8002608,0 -0.2497851,0.2439233 0.800501,0 0,0.046305 -0.7827566,0.6296141 0.3576962,0 0.6746053,-0.538763 z M 2.34787,4.376828 l 5.8207778,0 0,-1.54224 -5.8207778,0 0,1.54224 z m 7.1687032,-2.182372 -0.124691,0 0,0.640132 -0.9735285,0 0,1.54224 1.0348699,0 L 12.777995,8.834856 13,8.733722 C 12.830666,8.064482 11.294056,2.194456 9.5165732,2.194456"
     style="fill:#000000;fill-opacity:1;fill-rule:nonzero;stroke:none" />
  <path
     d="m 7.8065353,4.628204 c 0.7145097,0.702508 2.4516067,2.597642 2.4516067,4.420916 0,2.459718 -1.6837834,3.706957 -5.0042991,3.706957 -3.3205957,0 -5.0042984,-1.247239 -5.0042984,-3.706957 0,-1.823274 1.7370159,-3.718408 2.451606,-4.420916 z"
     style="fill:#795b3f;fill-opacity:1;fill-rule:nonzero;stroke:none"/>
</svg>
