<?xml version="1.0" encoding="UTF-8" standalone="no"?>
<svg
   xmlns:dc="http://purl.org/dc/elements/1.1/"
   xmlns:cc="http://creativecommons.org/ns#"
   xmlns:rdf="http://www.w3.org/1999/02/22-rdf-syntax-ns#"
   xmlns:svg="http://www.w3.org/2000/svg"
   xmlns="http://www.w3.org/2000/svg"
   xmlns:sodipodi="http://sodipodi.sourceforge.net/DTD/sodipodi-0.dtd"
   xmlns:inkscape="http://www.inkscape.org/namespaces/inkscape"
   width="30"
   height="21.000002"
   version="1.1"
   id="svg2"
   inkscape:version="0.48.2 r9819"
   sodipodi:docname="cooker.svg">
  <metadata
     id="metadata13">
    <rdf:RDF>
      <cc:Work
         rdf:about="">
        <dc:format>image/svg+xml</dc:format>
        <dc:type
           rdf:resource="http://purl.org/dc/dcmitype/StillImage" />
        <dc:title></dc:title>
      </cc:Work>
    </rdf:RDF>
  </metadata>
  <defs
     id="defs11" />
  <sodipodi:namedview
     pagecolor="#ffffff"
     bordercolor="#666666"
     borderopacity="1"
     objecttolerance="10"
     gridtolerance="10"
     guidetolerance="10"
     inkscape:pageopacity="0"
     inkscape:pageshadow="2"
     inkscape:window-width="1680"
     inkscape:window-height="995"
     id="namedview9"
     showgrid="false"
     inkscape:zoom="10.9"
     inkscape:cx="-0.2293578"
     inkscape:cy="10.500001"
     inkscape:window-x="-2"
     inkscape:window-y="-3"
     inkscape:window-maximized="1"
     inkscape:current-layer="svg2" />
  <rect
     style="fill:#ffffff;stroke:#000000;stroke-width:0.86030328000000000;stroke-linecap:butt;stroke-linejoin:miter;stroke-miterlimit:4;stroke-opacity:1;stroke-dasharray:none;fill-opacity:1"
     id="rect3814"
     width="29.139696"
     height="20.139698"
     x="0.43015164"
     y="0.43015164"
     rx="0.025491573"
     ry="0.030081866" />
  <path
     type="arc"
     style="fill:#ff0000;stroke:#000000;stroke-width:0.89188462000000002;stroke-linecap:butt;stroke-miterlimit:4;stroke-opacity:1;stroke-dasharray:none;fill-opacity:1"
     id="path3816"
     cx="142.85715"
     cy="423.79074"
     rx="34.285713"
     ry="34.285713"
     d="m 9.9987928,6.578175 c 0,1.890282 -1.5320442,3.422657 -3.4219155,3.422657 -1.8898722,0 -3.4219164,-1.532375 -3.4219164,-3.422657 0,-1.8902821 1.5320442,-3.4226574 3.4219164,-3.4226574 1.8898713,0 3.4219155,1.5323753 3.4219155,3.4226574 z" />
  <path
     type="arc"
     style="fill:#ff0000;stroke:#000000;stroke-width:0.89188462000000002;stroke-linecap:butt;stroke-miterlimit:4;stroke-opacity:1;stroke-dasharray:none;fill-opacity:1"
     id="path3818"
     cx="147.14285"
     cy="518.07648"
     rx="27.142857"
     ry="27.142857"
     d="m 9.3571814,15.420047 c 0,1.496472 -1.212868,2.709603 -2.709017,2.709603 -1.4961481,0 -2.7090161,-1.213131 -2.7090161,-2.709603 0,-1.496474 1.212868,-2.709605 2.7090161,-2.709605 1.496149,0 2.709017,1.213131 2.709017,2.709605 z" />
  <path
     type="arc"
     style="fill:#ff0000;stroke:#000000;stroke-width:0.89188462000000002;stroke-linecap:butt;stroke-miterlimit:4;stroke-opacity:1;stroke-dasharray:none;fill-opacity:1"
     id="path3816-1"
     cx="142.85715"
     cy="423.79074"
     rx="34.285713"
     ry="34.285713"
     d="m 20.27087,14.635678 c 0,-1.890282 1.532044,-3.422658 3.421915,-3.422658 1.889872,0 3.421917,1.532376 3.421917,3.422658 0,1.890282 -1.532045,3.422657 -3.421917,3.422657 -1.889871,0 -3.421915,-1.532375 -3.421915,-3.422657 z" />
  <path
     type="arc"
     style="fill:#ff0000;stroke:#000000;stroke-width:0.89188462000000002;stroke-linecap:butt;stroke-miterlimit:4;stroke-opacity:1;stroke-dasharray:none;fill-opacity:1"
     id="path3818-7"
     cx="147.14285"
     cy="518.07648"
     rx="27.142857"
     ry="27.142857"
     d="m 20.91248,5.7938162 c 0,-1.4964724 1.212868,-2.7096034 2.709017,-2.7096034 1.496148,0 2.709016,1.213131 2.709016,2.7096034 0,1.4964734 -1.212868,2.7096044 -2.709016,2.7096044 -1.496149,0 -2.709017,-1.213131 -2.709017,-2.7096044 z" />
</svg>
