<?xml version="1.0" encoding="UTF-8" standalone="no"?>
<svg
   xmlns="http://www.w3.org/2000/svg"
   version="1.1"
   width="30"
   height="21">
  <path
     d="m 0.79474,15.013339 0,-13.0248295 c 0,-0.65781 0.52211,-1.19317 1.1636296,-1.19317 l 26.0832704,0 c 0.64168,0 1.16363,0.53536 1.16363,1.19317 l 0,13.0248295 z"
     style="fill:#39d1ff;fill-opacity:1;fill-rule:nonzero;stroke:none"/>
  <path
     d="m 0,19.62859 c 0,0.29173 0.23832,0.5304 0.52982,0.5304 l 0.52984,0 0,0.31078 C 1.05966,20.7615 1.29815,21 1.58948,21 l 0.87812,0 c 0.29134,0 0.52949,-0.2385 0.52949,-0.53023 l 0,-0.31078 24.00549,0 0,0.31078 C 27.00258,20.7615 27.24091,21 27.5324,21 l 0.87796,0 c 0.29167,0 0.53015,-0.2385 0.53015,-0.53023 l 0,-0.31078 0.52967,0 C 29.76151,20.15899 30,19.92032 30,19.62859 l 0,-4.08485 -30,0 0,4.08485 z M 28.04164,0 1.95837,0 C 0.87881,0 0,0.89201 0,1.98851 l 0,13.02483 0.79474,0 0,-13.02483 c 0,-0.65781 0.52211,-1.19317 1.16363,-1.19317 l 26.08327,0 c 0.64168,0 1.16363,0.53536 1.16363,1.19317 l 0,13.02483 0.79473,0 0,-13.02483 C 30,0.89201 29.12153,0 28.04164,0 z m -25.51742,13.9529 0.49054,0 0,-4.82404 1.25662,0 0,4.82404 0.4907,0 0,-4.82404 1.25645,0 0,4.82404 0.49071,0 0,-4.82404 1.25645,0 0,4.82404 0.49088,0 0,-4.82404 1.25645,0 0,4.82404 0.49069,0 0,-4.82404 1.25645,0 0,4.82404 0.49088,0 0,-4.82404 1.25646,0 0,4.82404 0.4907,0 0,-4.82404 1.25663,0 0,4.82404 0.49051,0 0,-4.82404 1.25681,0 0,4.82404 0.49052,0 0,-4.82404 1.25662,0 0,4.82404 0.49055,0 0,-4.82404 1.25678,0 0,4.82404 0.49055,0 0,-4.82404 1.25609,0 0,4.82404 0.49089,0 0,-4.82404 1.25644,0 0,4.82404 0.49071,0 0,-4.82404 1.25645,0 0,4.82404 0.49087,0 0,-4.82404 1.25645,0 0,4.82404 0.49071,0 0,-5.31529 -24.95156,0 0,5.31529 z m -1.09979,0.79533 c 0,0.14664 0.11873,0.26511 0.26473,0.26511 l 26.62151,0 c 0.14636,0 0.26508,-0.11847 0.26508,-0.26511 0,-0.14629 -0.11872,-0.26494 -0.26508,-0.26494 l -26.62151,0 c -0.146,0 -0.26473,0.11865 -0.26473,0.26494 z m 1.59033,-12.68296 0,6.04211 1.25662,0 0,-4.78454 -1.25662,-1.25757 z m 1.74732,0 0,6.04211 1.25645,0 0,-4.78454 -1.25645,-1.25757 z m 1.74716,0 0,6.04211 1.25645,0 0,-4.78454 -1.25645,-1.25757 z m 1.74733,2.77559 0,3.26652 1.25645,0 0,-2.00912 -1.25645,-1.2574 z m 1.74714,0 0,3.26652 1.25645,0 0,-2.00912 -1.25645,-1.2574 z m 1.74733,0 0,3.26652 1.25646,0 0,-2.00912 -1.25646,-1.2574 z m 12.349,3.26652 0,-1.39286 c 0.38397,-0.25893 0.64787,-0.78882 0.64787,-1.4018 0,-0.86797 -0.52742,-1.57145 -1.1777,-1.57145 -0.6501,0 -1.17787,0.70348 -1.17787,1.57145 0,0.61298 0.26422,1.14269 0.64822,1.4018 l 0,1.39286 1.05948,0 z m -5.77078,0 0,-2.0548 c 0,-0.29189 -0.23849,-0.53038 -0.52965,-0.53038 l -2.20956,0 c -0.29133,0 -0.52966,0.23849 -0.52966,0.53038 l 0,0.77096 -0.23368,0 c -0.43856,0 -0.79475,0.35681 -0.79475,0.79551 l 0,0.48833 0.52966,0 0,-0.48833 c 0,-0.14628 0.11908,-0.26528 0.26509,-0.26528 l 0.23368,0 0,0.75361 3.26886,0 z m 3.00377,-4.21243 -1.94411,0 c -0.29169,0 -0.53001,0.23867 -0.53001,0.53022 l 0,3.68221 3.00395,0 0,-3.68221 c 0,-0.29155 -0.23849,-0.53022 -0.52983,-0.53022 z m 4.2568,-1.10029 c -0.14601,0 -0.26474,0.11847 -0.26474,0.26512 l -0.10622,5.0476 0.74224,0 -0.1062,-5.0476 c 0,-0.14665 -0.11874,-0.26512 -0.26508,-0.26512 z m 1.05982,0 c -0.14653,0 -0.26509,0.11847 -0.26509,0.26512 l -0.10585,5.0476 0.74172,0 -0.1057,-5.0476 c 0,-0.14665 -0.11873,-0.26512 -0.2651,-0.26512"
     style="fill:#000000;fill-opacity:1;fill-rule:nonzero;stroke:none" />
</svg>
