<?xml version="1.0" encoding="UTF-8" standalone="no"?>
<svg
   xmlns="http://www.w3.org/2000/svg"
   width="21"
   height="21"
   version="1.1">
  <rect
     style="fill:#ffffff;stroke:#000000;stroke-width:1;stroke-linejoin:bevel;stroke-miterlimit:4;stroke-opacity:1;stroke-dasharray:none"
     width="10"
     height="20"
     x="0.5"
     y="0.5"
     id="rect4" />
  <rect
     style="fill:#96ff4b;fill-opacity:1;stroke:#000000;stroke-width:1;stroke-linejoin:bevel;stroke-miterlimit:4;stroke-opacity:1;stroke-dasharray:none"
     width="3"
     height="8"
     x="4"
     y="6.5"/>
  <path
     style="fill:#96ff4b;fill-opacity:1;stroke:none"
     d="m 14.059322,3.4258475 a 0.57838982,0.57838982 0 1 1 -1.15678,0 0.57838982,0.57838982 0 1 1 1.15678,0 z"
     transform="matrix(1.0805861,0,0,1.0805861,-2.442308,6.6730768)" />
  <path
     style="fill:none;stroke:#96ff4b;stroke-width:0.5;stroke-linecap:butt;stroke-linejoin:miter;stroke-miterlimit:4;stroke-opacity:1;stroke-dasharray:none"
     d="m 12.500001,10.25 0,-4.5175"/>
  <path
     style="fill:#96ff4b;fill-opacity:1;stroke:none"
     d="m 14.059322,3.4258475 a 0.57838982,0.57838982 0 1 1 -1.15678,0 0.57838982,0.57838982 0 1 1 1.15678,0 z"
     transform="matrix(1.0805861,0,0,1.0805861,0.55769201,5.9733946)" />
  <path
     style="fill:none;stroke:#96ff4b;stroke-width:0.5;stroke-linecap:butt;stroke-linejoin:miter;stroke-miterlimit:4;stroke-opacity:1;stroke-dasharray:none"
     d="m 15.500001,9.75 0,-4.75" />
  <path
     style="fill:#96ff4b;fill-opacity:1;stroke:none"
     d="m 12.250001,5.5 3.5,-1 0,0.75 -3.5,1 z" />
  <path
     style="fill:#96ff4b;fill-opacity:1;stroke:none"
     d="m 14.059322,3.4258475 a 0.57838982,0.57838982 0 1 1 -1.15678,0 0.57838982,0.57838982 0 1 1 1.15678,0 z"
     transform="matrix(1.0805861,0,0,1.0805861,2.057692,2.6730768)" />
  <path
     style="fill:none;stroke:#96ff4b;stroke-width:0.5;stroke-linecap:butt;stroke-linejoin:miter;stroke-miterlimit:4;stroke-opacity:1;stroke-dasharray:none"
     d="m 17.000001,6.25 0,-4.5175002" />
  <path
     style="fill:#96ff4b;fill-opacity:1;stroke:none"
     d="m 14.059322,3.4258475 a 0.57838982,0.57838982 0 1 1 -1.15678,0 0.57838982,0.57838982 0 1 1 1.15678,0 z"
     transform="matrix(1.0805861,0,0,1.0805861,5.057692,1.9733948)" />
  <path
     style="fill:none;stroke:#96ff4b;stroke-width:0.5;stroke-linecap:butt;stroke-linejoin:miter;stroke-miterlimit:4;stroke-opacity:1;stroke-dasharray:none"
     d="m 20.000001,5.7499998 0,-4.75000003" />
  <path
     style="fill:#96ff4b;fill-opacity:1;stroke:none"
     d="m 16.750001,1.4999998 3.5,-1.00000003 0,0.75000003 -3.5,1 z" />
</svg>
