<?xml version="1.0" encoding="UTF-8" standalone="no"?>
<svg
   xmlns="http://www.w3.org/2000/svg"
   width="61"
   height="91"
   id="svg2"
   version="1.1">
  <path
     style="fill:#ffffff;stroke:#000000;stroke-width:1;stroke-linecap:butt;stroke-linejoin:miter;stroke-miterlimit:4;stroke-opacity:1;stroke-dasharray:none"
     d="m 0.5,87.5 0,-84 c 0,-1.5 1.5,-3 3,-3 l 54,0 c 1.5,0 3,1.5 3,3 l 0,84 c 0,1.5 -1.5,3 -3,3 l -54,0 c -1.5,0 -3,-1.5 -3,-3 z"
     id="path4" />
  <path
     style="fill:#ffffff;stroke:#000000;stroke-width:1;stroke-linecap:butt;stroke-linejoin:miter;stroke-miterlimit:4;stroke-opacity:1;stroke-dasharray:none"
     d="m 7,6 20,0 c 1,0 2,1 2,2 l 0,11 c 0,1 -1,2 -2,2 L 7,21 C 6,21 5,20 5,19 L 5,8 C 5,7 6,6 7,6 z"
     id="path6" />
  <path
     style="fill:#ffffff;stroke:#000000;stroke-width:1;stroke-linecap:butt;stroke-linejoin:miter;stroke-miterlimit:4;stroke-opacity:1;stroke-dasharray:none"
     d="m 34,6 20,0 c 1,0 2,1 2,2 l 0,11 c 0,1 -1,2 -2,2 l -20,0 c -1,0 -2,-1 -2,-2 L 32,8 c 0,-1 1,-2 2,-2 z"
     id="path8" />
  <path
     style="fill:none;stroke:#000000;stroke-width:0.99790102px;stroke-linecap:butt;stroke-linejoin:miter;stroke-opacity:1"
     d="m 0,25.5 60,0"/>
  <path
     style="fill:none;stroke:#000000;stroke-width:1.00116122px;stroke-linecap:butt;stroke-linejoin:miter;stroke-opacity:1"
     d="m 0,30.5 60,0"/>
</svg>
