<?xml version="1.0" encoding="UTF-8" standalone="no"?>
<svg
   xmlns="http://www.w3.org/2000/svg"
   version="1.1"
   width="16.299999"
   height="21">
  <path
     style="fill:#ffff00;stroke:none"
     d="m 0,7.65 6.426,0 -2.975,-5.875 -0.476,0 z" />
  <path
     d="m 6.8616423,4.01725 -0.5853464,0.19593 8.2044461,6.28723 0.580713,-0.19939 C 13.293997,8.94628 7.1186519,4.21399 6.8616423,4.01725 z M 15.993342,9.98114 16.089992,9.94774 7.8979571,3.67009 7.3126109,3.86602 c 0.074969,0.0576 6.3980991,4.90303 8.1963361,6.28113 L 15.993344,9.98099 z M 6.8616423,18.7224 C 7.1181552,18.52582 13.293832,13.79322 15.061455,12.43846 L 14.480742,12.2394 6.0202792,18.7224 z M 6.8005753,1.61818 c 0,0.18516 0,1.88195 0,1.88195 l 0.5115367,-0.1534 0,-2.24004 -2.7953306,0 0.259161,0.51149 z m 9.3615697,8.8546 -1.56142,0.53582 0,0.7271 1.699275,0.58312 0,-1.89336 -0.137855,0.0473 z m -0.653199,2.11925 c -1.6205,1.24205 -6.9137721,5.29836 -7.9994016,6.13037 l 0.8411974,0 7.7392472,-5.93081 -0.09665,-0.0332 -0.484397,-0.16645 z m -7.9994016,6.65013 -0.7048317,0 0,0.7185 -4.2005259,0 0,1.03934 9.1057182,0 0,-1.03934 -4.2003606,0 z m -3.671116,-18.32459 -0.3655725,0 0,-0.91757 -0.5198114,0 0,0.91757 -0.365076,0 L 0,6.0253 l 0.6,-3e-4 2.276,-4.45 0.674,0 2.276,4.45 0.6000664,3e-4 -2.5876378,-5.10773"
     style="fill:#000000;fill-opacity:1;fill-rule:nonzero;stroke:none" />
</svg>
