<?xml version="1.0" encoding="UTF-8" standalone="no"?>
<svg
   xmlns="http://www.w3.org/2000/svg"
   width="31"
   height="31"
   version="1.1">
  <path
     style="fill:#00b481;stroke:#000000;stroke-width:1px;stroke-linecap:butt;stroke-linejoin:miter;stroke-opacity:1"
     d="m 24.5,24.5 0,-20 -18,0 0,20 z" />
  <path
     style="fill:#ffffff;stroke:#000000;stroke-width:1px"
     d="m 30.5,4.5 c 0,-2.5 0,-4 -3,-4 -3,0 -3,1.5 -3,4 0,6 0,20 0,20 l -18,0 c 0,0 0,-16 0,-20 0,-2.5 0,-4 -3,-4 -3,0 -3,1.5 -3,4 0,4 0,17.5 0,22 0,2 1,4 3,4 5,0 19,0 24,0 2,0 3,-2 3,-4 0,-4 0,-22 0,-22 z" />
</svg>
