<?xml version="1.0" encoding="UTF-8" standalone="no"?>
<svg
   xmlns="http://www.w3.org/2000/svg"
   width="13.000197"
   height="21.000013"
   version="1.1">
  <path
     d="m 4.351041,16.9456 4.298114,0.6524 z m 0,1.2545 4.298114,0.6526 z m 0,1.2545 4.298114,0.6525 z m 0.823468,1.1051 2.402884,0 z"
     style="fill:none;stroke:#000000;stroke-width:0.8806141;stroke-linecap:round;stroke-linejoin:round;stroke-miterlimit:4;stroke-opacity:1;stroke-dasharray:none" />
  <path
     d="m 6.493251,0.4403 c -3.349433,0 -6.052944,2.7431 -6.052944,6.1245 0,2.8767 2.259583,4.0251 2.259583,5.813 l 0,1.3133 c 0,1.4311 1.143319,2.5854 2.560861,2.5854 l 2.478694,0 c 1.417542,0 2.560862,-1.1543 2.560862,-2.5854 l 0,-1.3133 c 0,-1.7879 2.259583,-2.7688 2.259583,-5.813 0,-3.3814 -2.717207,-6.1245 -6.066639,-6.1245 z"
     style="color:#000000;fill:#ffffff;stroke:#000000;stroke-width:0.8806141;stroke-linecap:round;stroke-linejoin:round;stroke-miterlimit:4;stroke-opacity:1;stroke-dasharray:none;stroke-dashoffset:0;marker:none;visibility:visible;display:inline;overflow:visible;enable-background:accumulate" />
  <path
     d="m 2.317797,6.0085 c 0.337919,0.3653 0.640659,0.6454 1.054762,0.6454 0.486457,0 0.707006,-0.61 1.053693,-1.0507 0.345583,0.4349 0.667097,2.0145 2.111669,2.0145 1.44457,0 1.764984,-1.5738 2.111669,-2.0145 0.345586,0.4349 0.557605,1.0507 1.040493,1.0507 0.414103,0 0.610189,-0.2801 0.948107,-0.6454"
     style="color:#000000;fill:none;stroke:#000000;stroke-width:0.44030702;stroke-linecap:round;stroke-linejoin:round;stroke-miterlimit:4;stroke-opacity:1;stroke-dasharray:none;stroke-dashoffset:0;marker:none;visibility:visible;display:inline;overflow:visible;enable-background:accumulate" />
</svg>
