<?xml version="1.0" encoding="UTF-8" standalone="no"?>
<svg
   xmlns="http://www.w3.org/2000/svg"
   version="1.1"
   width="20"
   height="13">
  <path
     style="fill:#ffffff;stroke:none"
     d="m 0,0.344 0,11.062 20,0 0,-11.062 z" />
  <path
     style="fill:#ffffff;stroke:none"
     d="m 2.819,2.906 0,5.969 10.081,0 0,-5.969 z" />
  <path
     style="fill:#000000;fill-opacity:1;fill-rule:nonzero;stroke:none"
     d="M 0.34375,0 C 0.15791467,-0.00347342 -0.00471362,0.16205759 0,0.34375 l 0,2.21875 16,0 L 16,0 z m 15.96875,0 0,8.875 3.6875,0 0,-8.53125 C 20.004891,0.16197337 19.841568,-0.00365088 19.65625,0 z m -15.875,0.34375 15.1875,0 0,1.84375 -15.28125,0 0,-1.75 c 0,-0.0423962 0.0445782,-0.09375 0.09375,-0.09375 z m 16.21875,0 2.84375,0 c 0.05934,0 0.15625,0.0539406 0.15625,0.15625 l 0,8.03125 -3,0 z M 0,2.90625 0,8.875 l 2.46875,0 0,-5.969 z m 13.25,0 0,5.96875 2.75,0 0,-5.96875 z M 0.34375,3.25 l 1.75,0 0,5.28125 -1.75,0 z m 13.25,0 2.03125,0 0,5.28125 -2.03125,0 z m -6.875,4.15625 C 5.7393966,7.435053 4.773028,7.5238247 3.8125,7.71875 c -0.9400428,0.459823 1.0380394,0.5866352 1.40625,0.625 2.158393,0.1522208 4.3598883,0.1678793 6.5,-0.1875 C 11.885031,8.092498 12.168273,8.097198 12.25,7.90625 11.530582,7.420496 10.5046,7.553312 9.65625,7.4375 8.6810707,7.4026569 7.6981034,7.3774471 6.71875,7.40625 z M 0,9.21875 c -3.1758993e-5,0.732356 1.1131841e-4,1.455177 0,2.1875 0.07270244,0.522838 0.69748115,0.329171 1.0625,0.375 0.3196105,-0.05409 0.5747484,0.02879 0.75,0.3125 0.4174957,0.197239 -0.034398,0.856562 0.53125,0.90625 0.4497707,0.114001 0.7943627,-0.242863 0.6875,-0.6875 0.1662069,-0.126287 0.3761955,-0.579553 0.5625,-0.46875 0.2278604,0.186796 0.3754948,0.566471 0.71875,0.46875 l 10.15625,0 c 0.245453,-0.180442 0.393485,-0.610699 0.75,-0.53125 C 15.444448,11.71875 15.933497,11.909206 16,11.6875 L 16,9.21875 z M 16.59375,9.25 c -0.217334,0.00402 -0.373404,0.092745 -0.28125,0.40625 0.03515,0.2532623 -0.05349,0.640077 0.0625,0.8125 0.371585,0.07645 0.532347,-0.04752 0.4375,-0.4375 l 0,-0.78125 c -0.0833,-0.00952 -0.146305,-0.00134 -0.21875,0 z m 0.5625,0 0,1.21875 2,0 0,-1.21875 z m 2.5625,0 C 19.516003,9.2686061 19.428863,9.3950104 19.5,9.6875 l 0,0.78125 c 0.333216,0.03808 0.622874,0.04301 0.5,-0.375 C 19.96485,9.8404881 20.05349,9.4224234 19.9375,9.25 19.8446,9.230888 19.786332,9.2438 19.71875,9.25 z m -19.375,0.3125 15.28125,0 0,1.28125 -15.28125,0 z m 15.96875,1.28125 0,0.9375 c 0.190769,0.261901 0.597233,0.435086 0.5,0.8125 -0.07107,0.568115 1.077356,0.563639 1.03125,0 -0.101884,-0.364705 0.24414,-0.535017 0.4375,-0.78125 0.277758,-0.104919 0.659246,-6.3e-4 0.96875,-0.03125 0.43347,0.09451 0.873297,-0.161712 0.75,-0.65625 0.130815,-0.430413 -0.365255,-0.241397 -0.625,-0.28125 z" />
  <path
     style="fill:none;stroke:#000000;stroke-width:0.3004668;stroke-miterlimit:4;stroke-dasharray:none"
     d="m 18.34375,3.15625 a 1.25,1.53125 0 1 1 -2.5,0 1.25,1.53125 0 1 1 2.5,0 z"
     transform="matrix(0.92089807,0,0,0.75175352,2.4260856,1.7725913)" />
  <path
     style="fill:none;stroke:#000000;stroke-width:0.25;stroke-linecap:butt;stroke-linejoin:miter;stroke-miterlimit:4;stroke-opacity:1;stroke-dasharray:none"
     d="m 17.40625,3.359375 1.554687,1.5546875" />
</svg>
