<?xml version="1.0" encoding="UTF-8" standalone="no"?>
<svg
   xmlns="http://www.w3.org/2000/svg"
   version="1.1"
   width="21"
   height="21">
  <path
     d="m 0.5,0.5 0,20 20,0 0,-20 z"
     style="fill:#ffffff;stroke:#000000" />
  <path
     style="fill:#ff0000;stroke:#000000;stroke-width:0.5;"
     d="m 10.212923,12.405028 1.564638,0 m -1.564638,-6.5251361 1.564638,0 m -1.564638,2.1750459 1.564638,0 m -1.564638,2.1750452 1.564638,0 M 10.500063,2.1549033 c -0.775566,0 -1.4004254,0.6267369 -1.4004254,1.4046313 l 0,10.2670014 c -0.6461421,0.447079 -1.0696623,1.194656 -1.0696622,2.040983 0,1.367801 1.1063824,2.477505 2.4700876,2.477506 1.363706,0 2.470088,-1.109707 2.470088,-2.477506 0,-0.846327 -0.42352,-1.593903 -1.069662,-2.040983 l 0,-10.2670014 c 0,-0.7778957 -0.62486,-1.4046313 -1.400426,-1.4046313 z" />
</svg>
