<?xml version="1.0" encoding="UTF-8" standalone="no"?>
<svg
   xmlns="http://www.w3.org/2000/svg"
   version="1.1"
   width="17"
   height="13">
  <path
     d="m 14.661,10.201022 c 0,0.212883 -0.177077,0.386978 -0.393524,0.386978 l -6.2932164,0 c -0.216566,0 -0.570837,0 -0.787403,0 l -6.2932146,0 C 0.676959,10.588 0.5,10.413816 0.5,10.200993 l 0,-2.685011 c 0,-0.2126481 0,-0.5608994 0,-0.7736644 l 0,-3.8379612 c 0,-0.2127651 0.100456,-0.5300699 0.223391,-0.7052778 0,0 1.192697,-1.69907857 6.8569906,-1.69907857 5.6647674,0 6.8572274,1.69907857 6.8572274,1.69907857 C 14.560426,2.3742865 14.661,2.6917857 14.661,2.9045508 l 0,3.8377668 c 0,0.212765 0,0.5610163 0,0.7736644 z"
     style="fill:#ffffff" />
  <rect
     style="fill:#ffffff;fill-opacity:1;stroke:none"
     width="14.450746"
     height="0.83744216"
     x="0.31160638"
     y="11.792525" />
  <path
     style="fill:#000000"
     d="M 7.59375 0 C 1.5293691 0 0.25 1.875 0.25 1.875 C 0.11838068 2.0675826 5.3172839e-18 2.4223859 0 2.65625 L 0 6.875 L 0 7.71875 L 0 10.65625 C -3.6140072e-20 10.890178 0.17426228 11.09375 0.40625 11.09375 L 7.15625 11.09375 L 8 11.09375 L 14.75 11.09375 C 14.981736 11.09375 15.15625 10.890243 15.15625 10.65625 L 15.15625 7.71875 L 15.15625 6.875 L 15.15625 2.65625 C 15.15625 2.4223859 15.068993 2.0675826 14.9375 1.875 C 14.9375 1.875 13.658636 -2.5816485e-17 7.59375 0 z M 7.59375 0.5 C 13.258517 0.5 14.4375 2.1875 14.4375 2.1875 C 14.560317 2.3627079 14.65625 2.6934849 14.65625 2.90625 L 14.65625 6.75 L 14.65625 7.53125 L 14.65625 10.1875 C 14.65625 10.400383 14.497697 10.59375 14.28125 10.59375 L 7.96875 10.59375 L 7.1875 10.59375 L 0.90625 10.59375 C 0.689567 10.59375 0.5 10.400323 0.5 10.1875 L 0.5 7.53125 L 0.5 6.75 L 0.5 2.90625 C 0.5 2.6934849 0.595815 2.3627079 0.71875 2.1875 C 0.71875 2.1875 1.929456 0.5 7.59375 0.5 z M 15.90625 3.8125 C 15.675711 3.8125 15.46875 4.014657 15.46875 4.25 L 15.46875 4.9375 C 15.46875 5.172843 15.675711 5.34375 15.90625 5.34375 L 16.59375 5.34375 C 16.824162 5.34375 17 5.172843 17 4.9375 L 17 4.25 C 17 4.014657 16.824162 3.8125 16.59375 3.8125 L 15.90625 3.8125 z M 0.40625 11.46875 C 0.17432528 11.468755 0 11.672515 0 11.90625 L 0 12.5625 C 0 12.796299 0.17426228 13 0.40625 13 L 14.75 13 C 14.981736 13 15.15625 12.796364 15.15625 12.5625 L 15.15625 11.90625 C 15.15625 11.672579 14.981736 11.468745 14.75 11.46875 L 0.40625 11.46875 z M 0.90625 11.96875 L 14.28125 11.96875 C 14.497698 11.968748 14.65625 12.04417 14.65625 12.125 L 14.65625 12.34375 C 14.65625 12.42465 14.497697 12.5 14.28125 12.5 L 0.90625 12.5 C 0.68956728 12.5 0.5 12.424624 0.5 12.34375 L 0.5 12.125 C 0.5 12.04415 0.68962613 11.968751 0.90625 11.96875 z "/>
</svg>
